ISO-10303-21;
HEADER;
FILE_DESCRIPTION(('convert3d SLDPRT import'),'2;1');
FILE_NAME('converted','2024-01-01',(''),(''),'','convert3d','');
FILE_SCHEMA(('AUTOMOTIVE_DESIGN { 1 0 10303 214 1 1 1 1 }'));
ENDSEC;
DATA;
#1=APPLICATION_PROTOCOL_DEFINITION('international standard','automotive_design',2000,#2);
#2=APPLICATION_CONTEXT('core data for automotive mechanical design processes');
#3=SHAPE_DEFINITION_REPRESENTATION(#4,#676);
#4=PRODUCT_DEFINITION_SHAPE('','',#5);
#5=PRODUCT_DEFINITION('design','',#6,#9);
#6=PRODUCT_DEFINITION_FORMATION('','',#7);
#7=PRODUCT('Part','Part','',(#8));
#8=PRODUCT_CONTEXT('',#2,'mechanical');
#9=PRODUCT_DEFINITION_CONTEXT('part definition',#2,'design');
#20=(GEOMETRIC_REPRESENTATION_CONTEXT(2) PARAMETRIC_REPRESENTATION_CONTEXT() REPRESENTATION_CONTEXT('2D','2d'));
#21=CARTESIAN_POINT('',(0.,0.,0.));
#22=DIRECTION('',(0.,1.,0.));
#23=DIRECTION('',(0.,0.,1.));
#24=AXIS2_PLACEMENT_3D('',#21,#22,#23);
#25=PLANE('',#24);
#26=CARTESIAN_POINT('',(-0.00025,0.,-0.00275));
#27=VERTEX_POINT('',#26);
#28=CARTESIAN_POINT('',(-0.00025,0.,-0.00225));
#29=VERTEX_POINT('',#28);
#30=CARTESIAN_POINT('',(-0.00025,0.,-0.00275));
#31=DIRECTION('',(0.,0.,1.));
#32=VECTOR('',#31,1.);
#33=LINE('',#30,#32);
#34=EDGE_CURVE('',#27,#29,#33,.T.);
#35=ORIENTED_EDGE('',*,*,#34,.T.);
#36=CARTESIAN_POINT('',(0.00025000000000000006,0.,-0.00225));
#37=VERTEX_POINT('',#36);
#38=CARTESIAN_POINT('',(-0.00025,0.,-0.00225));
#39=DIRECTION('',(1.,0.,0.));
#40=VECTOR('',#39,1.);
#41=LINE('',#38,#40);
#42=EDGE_CURVE('',#29,#37,#41,.T.);
#43=ORIENTED_EDGE('',*,*,#42,.T.);
#44=CARTESIAN_POINT('',(0.00025,0.,-0.00275));
#45=VERTEX_POINT('',#44);
#46=CARTESIAN_POINT('',(0.00025000000000000006,0.,-0.00225));
#47=DIRECTION('',(-1.0842021724855044E-16,0.,-1.));
#48=VECTOR('',#47,1.);
#49=LINE('',#46,#48);
#50=EDGE_CURVE('',#37,#45,#49,.T.);
#51=ORIENTED_EDGE('',*,*,#50,.T.);
#52=CARTESIAN_POINT('',(0.00025,0.,-0.00275));
#53=DIRECTION('',(-1.,0.,0.));
#54=VECTOR('',#53,1.);
#55=LINE('',#52,#54);
#56=EDGE_CURVE('',#45,#27,#55,.T.);
#57=ORIENTED_EDGE('',*,*,#56,.T.);
#58=EDGE_LOOP('',(#35,#43,#51,#57));
#59=FACE_OUTER_BOUND('',#58,.T.);
#60=CARTESIAN_POINT('',(0.,0.,0.0045));
#61=VERTEX_POINT('',#60);
#62=CARTESIAN_POINT('',(0.,0.,0.));
#63=DIRECTION('',(0.,1.,0.));
#64=DIRECTION('',(0.,0.,1.));
#65=AXIS2_PLACEMENT_3D('',#62,#63,#64);
#66=CIRCLE('',#65,0.0045);
#67=EDGE_CURVE('',#61,#61,#66,.T.);
#68=ORIENTED_EDGE('',*,*,#67,.T.);
#69=EDGE_LOOP('',(#68));
#70=FACE_BOUND('',#69,.F.);
#71=CARTESIAN_POINT('',(0.00025,0.,0.00275));
#72=VERTEX_POINT('',#71);
#73=CARTESIAN_POINT('',(0.00025000000000000006,0.,0.00225));
#74=VERTEX_POINT('',#73);
#75=CARTESIAN_POINT('',(0.00025,0.,0.00275));
#76=DIRECTION('',(1.0842021724855044E-16,0.,-1.));
#77=VECTOR('',#76,1.);
#78=LINE('',#75,#77);
#79=EDGE_CURVE('',#72,#74,#78,.T.);
#80=ORIENTED_EDGE('',*,*,#79,.T.);
#81=CARTESIAN_POINT('',(-0.00025,0.,0.00225));
#82=VERTEX_POINT('',#81);
#83=CARTESIAN_POINT('',(0.00025000000000000006,0.,0.00225));
#84=DIRECTION('',(-1.,0.,0.));
#85=VECTOR('',#84,1.);
#86=LINE('',#83,#85);
#87=EDGE_CURVE('',#74,#82,#86,.T.);
#88=ORIENTED_EDGE('',*,*,#87,.T.);
#89=CARTESIAN_POINT('',(-0.00025,0.,0.00275));
#90=VERTEX_POINT('',#89);
#91=CARTESIAN_POINT('',(-0.00025,0.,0.00225));
#92=DIRECTION('',(0.,0.,1.));
#93=VECTOR('',#92,1.);
#94=LINE('',#91,#93);
#95=EDGE_CURVE('',#82,#90,#94,.T.);
#96=ORIENTED_EDGE('',*,*,#95,.T.);
#97=CARTESIAN_POINT('',(-0.00025,0.,0.00275));
#98=DIRECTION('',(1.,0.,0.));
#99=VECTOR('',#98,1.);
#100=LINE('',#97,#99);
#101=EDGE_CURVE('',#90,#72,#100,.T.);
#102=ORIENTED_EDGE('',*,*,#101,.T.);
#103=EDGE_LOOP('',(#80,#88,#96,#102));
#104=FACE_BOUND('',#103,.F.);
#105=ADVANCED_FACE('',(#59,#70,#104),#25,.F.);
#106=CARTESIAN_POINT('',(0.,0.0055,0.));
#107=DIRECTION('',(0.,-1.,0.));
#108=DIRECTION('',(0.,0.,-1.));
#109=AXIS2_PLACEMENT_3D('',#106,#107,#108);
#110=CYLINDRICAL_SURFACE('',#109,0.0034999999999999996);
#111=CARTESIAN_POINT('',(0.,0.001,0.0034999999999999996));
#112=VERTEX_POINT('',#111);
#113=CARTESIAN_POINT('',(0.,0.001,0.));
#114=DIRECTION('',(0.,1.,0.));
#115=DIRECTION('',(0.,0.,1.));
#116=AXIS2_PLACEMENT_3D('',#113,#114,#115);
#117=CIRCLE('',#116,0.0034999999999999996);
#118=EDGE_CURVE('',#112,#112,#117,.T.);
#119=ORIENTED_EDGE('',*,*,#118,.F.);
#120=EDGE_LOOP('',(#119));
#121=FACE_OUTER_BOUND('',#120,.T.);
#122=CARTESIAN_POINT('',(0.,0.0053,0.0034999999999999996));
#123=VERTEX_POINT('',#122);
#124=CARTESIAN_POINT('',(0.,0.0053,0.));
#125=DIRECTION('',(0.,1.,0.));
#126=DIRECTION('',(0.,0.,1.));
#127=AXIS2_PLACEMENT_3D('',#124,#125,#126);
#128=CIRCLE('',#127,0.0034999999999999996);
#129=EDGE_CURVE('',#123,#123,#128,.T.);
#130=ORIENTED_EDGE('',*,*,#129,.F.);
#131=EDGE_LOOP('',(#130));
#132=FACE_BOUND('',#131,.F.);
#133=ADVANCED_FACE('',(#121,#132),#110,.T.);
#134=CARTESIAN_POINT('',(0.,0.001,0.));
#135=DIRECTION('',(0.,1.,0.));
#136=DIRECTION('',(0.,0.,1.));
#137=AXIS2_PLACEMENT_3D('',#134,#135,#136);
#138=PLANE('',#137);
#139=CARTESIAN_POINT('',(0.,0.001,0.002296416315948154));
#140=VERTEX_POINT('',#139);
#141=CARTESIAN_POINT('',(0.,0.001,0.));
#142=DIRECTION('',(0.,1.,0.));
#143=DIRECTION('',(0.,0.,1.));
#144=AXIS2_PLACEMENT_3D('',#141,#142,#143);
#145=CIRCLE('',#144,0.002296416315948154);
#146=EDGE_CURVE('',#140,#140,#145,.T.);
#147=ORIENTED_EDGE('',*,*,#146,.T.);
#148=EDGE_LOOP('',(#147));
#149=FACE_OUTER_BOUND('',#148,.T.);
#150=CARTESIAN_POINT('',(0.,0.001,0.));
#151=DIRECTION('',(0.,1.,0.));
#152=DIRECTION('',(0.,0.,1.));
#153=AXIS2_PLACEMENT_3D('',#150,#151,#152);
#154=CIRCLE('',#153,0.0034999999999999996);
#155=EDGE_CURVE('',#112,#112,#154,.T.);
#156=ORIENTED_EDGE('',*,*,#155,.T.);
#157=EDGE_LOOP('',(#156));
#158=FACE_BOUND('',#157,.F.);
#159=ADVANCED_FACE('',(#149,#158),#138,.T.);
#160=CARTESIAN_POINT('',(0.,0.003,0.));
#161=DIRECTION('',(0.,-1.,0.));
#162=DIRECTION('',(0.,0.,-1.));
#163=AXIS2_PLACEMENT_3D('',#160,#161,#162);
#164=CYLINDRICAL_SURFACE('',#163,0.002296416315948154);
#165=CARTESIAN_POINT('',(0.,0.003,0.002296416315948154));
#166=VERTEX_POINT('',#165);
#167=CARTESIAN_POINT('',(0.,0.003,0.));
#168=DIRECTION('',(0.,1.,0.));
#169=DIRECTION('',(0.,0.,1.));
#170=AXIS2_PLACEMENT_3D('',#167,#168,#169);
#171=CIRCLE('',#170,0.002296416315948154);
#172=EDGE_CURVE('',#166,#166,#171,.T.);
#173=ORIENTED_EDGE('',*,*,#172,.T.);
#174=EDGE_LOOP('',(#173));
#175=FACE_OUTER_BOUND('',#174,.T.);
#176=CARTESIAN_POINT('',(0.,0.001,0.));
#177=DIRECTION('',(0.,1.,0.));
#178=DIRECTION('',(0.,0.,1.));
#179=AXIS2_PLACEMENT_3D('',#176,#177,#178);
#180=CIRCLE('',#179,0.002296416315948154);
#181=EDGE_CURVE('',#140,#140,#180,.T.);
#182=ORIENTED_EDGE('',*,*,#181,.F.);
#183=EDGE_LOOP('',(#182));
#184=FACE_BOUND('',#183,.F.);
#185=ADVANCED_FACE('',(#175,#184),#164,.F.);
#186=CARTESIAN_POINT('',(0.,0.003,0.));
#187=DIRECTION('',(0.,1.,0.));
#188=DIRECTION('',(0.,0.,1.));
#189=AXIS2_PLACEMENT_3D('',#186,#187,#188);
#190=PLANE('',#189);
#191=CARTESIAN_POINT('',(0.,0.003,0.));
#192=DIRECTION('',(0.,1.,0.));
#193=DIRECTION('',(0.,0.,1.));
#194=AXIS2_PLACEMENT_3D('',#191,#192,#193);
#195=CIRCLE('',#194,0.002296416315948154);
#196=EDGE_CURVE('',#166,#166,#195,.T.);
#197=ORIENTED_EDGE('',*,*,#196,.F.);
#198=EDGE_LOOP('',(#197));
#199=FACE_OUTER_BOUND('',#198,.T.);
#200=ADVANCED_FACE('',(#199),#190,.T.);
#201=CARTESIAN_POINT('',(0.,0.0053,0.));
#202=DIRECTION('',(0.,1.,0.));
#203=DIRECTION('',(0.,0.,1.));
#204=AXIS2_PLACEMENT_3D('',#201,#202,#203);
#205=PLANE('',#204);
#206=CARTESIAN_POINT('',(0.,0.0053,0.001));
#207=VERTEX_POINT('',#206);
#208=CARTESIAN_POINT('',(0.,0.0053,0.));
#209=DIRECTION('',(0.,1.,0.));
#210=DIRECTION('',(0.,0.,1.));
#211=AXIS2_PLACEMENT_3D('',#208,#209,#210);
#212=CIRCLE('',#211,0.001);
#213=EDGE_CURVE('',#207,#207,#212,.T.);
#214=ORIENTED_EDGE('',*,*,#213,.F.);
#215=EDGE_LOOP('',(#214));
#216=FACE_OUTER_BOUND('',#215,.T.);
#217=CARTESIAN_POINT('',(0.,0.0053,0.));
#218=DIRECTION('',(0.,1.,0.));
#219=DIRECTION('',(0.,0.,1.));
#220=AXIS2_PLACEMENT_3D('',#217,#218,#219);
#221=CIRCLE('',#220,0.0034999999999999996);
#222=EDGE_CURVE('',#123,#123,#221,.T.);
#223=ORIENTED_EDGE('',*,*,#222,.T.);
#224=EDGE_LOOP('',(#223));
#225=FACE_BOUND('',#224,.F.);
#226=ADVANCED_FACE('',(#216,#225),#205,.F.);
#227=CARTESIAN_POINT('',(0.,0.0053,0.));
#228=DIRECTION('',(0.,1.,0.));
#229=DIRECTION('',(0.,0.,1.));
#230=AXIS2_PLACEMENT_3D('',#227,#228,#229);
#231=CYLINDRICAL_SURFACE('',#230,0.001);
#232=CARTESIAN_POINT('',(0.,0.0053,0.));
#233=DIRECTION('',(0.,1.,0.));
#234=DIRECTION('',(0.,0.,1.));
#235=AXIS2_PLACEMENT_3D('',#232,#233,#234);
#236=CIRCLE('',#235,0.001);
#237=EDGE_CURVE('',#207,#207,#236,.T.);
#238=ORIENTED_EDGE('',*,*,#237,.T.);
#239=EDGE_LOOP('',(#238));
#240=FACE_OUTER_BOUND('',#239,.T.);
#241=CARTESIAN_POINT('',(0.,0.0055,0.001));
#242=VERTEX_POINT('',#241);
#243=CARTESIAN_POINT('',(0.,0.0055,0.));
#244=DIRECTION('',(0.,1.,0.));
#245=DIRECTION('',(0.,0.,1.));
#246=AXIS2_PLACEMENT_3D('',#243,#244,#245);
#247=CIRCLE('',#246,0.001);
#248=EDGE_CURVE('',#242,#242,#247,.T.);
#249=ORIENTED_EDGE('',*,*,#248,.F.);
#250=EDGE_LOOP('',(#249));
#251=FACE_BOUND('',#250,.F.);
#252=ADVANCED_FACE('',(#240,#251),#231,.F.);
#253=CARTESIAN_POINT('',(0.,0.001,0.));
#254=DIRECTION('',(0.,-1.,0.));
#255=DIRECTION('',(0.,0.,-1.));
#256=AXIS2_PLACEMENT_3D('',#253,#254,#255);
#257=CYLINDRICAL_SURFACE('',#256,0.0045);
#258=CARTESIAN_POINT('',(0.,0.0052,0.0045));
#259=VERTEX_POINT('',#258);
#260=CARTESIAN_POINT('',(0.,0.0052,0.));
#261=DIRECTION('',(0.,1.,0.));
#262=DIRECTION('',(0.,0.,1.));
#263=AXIS2_PLACEMENT_3D('',#260,#261,#262);
#264=CIRCLE('',#263,0.0045);
#265=EDGE_CURVE('',#259,#259,#264,.T.);
#266=ORIENTED_EDGE('',*,*,#265,.F.);
#267=EDGE_LOOP('',(#266));
#268=FACE_OUTER_BOUND('',#267,.T.);
#269=CARTESIAN_POINT('',(0.,0.,0.));
#270=DIRECTION('',(0.,1.,0.));
#271=DIRECTION('',(0.,0.,1.));
#272=AXIS2_PLACEMENT_3D('',#269,#270,#271);
#273=CIRCLE('',#272,0.0045);
#274=EDGE_CURVE('',#61,#61,#273,.T.);
#275=ORIENTED_EDGE('',*,*,#274,.F.);
#276=EDGE_LOOP('',(#275));
#277=FACE_BOUND('',#276,.F.);
#278=ADVANCED_FACE('',(#268,#277),#257,.F.);
#279=CARTESIAN_POINT('',(0.,0.0055,0.));
#280=DIRECTION('',(0.,1.,0.));
#281=DIRECTION('',(0.,0.,1.));
#282=AXIS2_PLACEMENT_3D('',#279,#280,#281);
#283=PLANE('',#282);
#284=CARTESIAN_POINT('',(0.,0.0055,0.0042));
#285=VERTEX_POINT('',#284);
#286=CARTESIAN_POINT('',(0.,0.0055,0.));
#287=DIRECTION('',(0.,1.,0.));
#288=DIRECTION('',(0.,0.,1.));
#289=AXIS2_PLACEMENT_3D('',#286,#287,#288);
#290=CIRCLE('',#289,0.0042);
#291=EDGE_CURVE('',#285,#285,#290,.T.);
#292=ORIENTED_EDGE('',*,*,#291,.F.);
#293=EDGE_LOOP('',(#292));
#294=FACE_OUTER_BOUND('',#293,.T.);
#295=CARTESIAN_POINT('',(0.,0.0055,0.));
#296=DIRECTION('',(0.,1.,0.));
#297=DIRECTION('',(0.,0.,1.));
#298=AXIS2_PLACEMENT_3D('',#295,#296,#297);
#299=CIRCLE('',#298,0.001);
#300=EDGE_CURVE('',#242,#242,#299,.T.);
#301=ORIENTED_EDGE('',*,*,#300,.T.);
#302=EDGE_LOOP('',(#301));
#303=FACE_BOUND('',#302,.F.);
#304=ADVANCED_FACE('',(#294,#303),#283,.T.);
#305=CARTESIAN_POINT('',(-0.00025,-0.005,-0.00275));
#306=DIRECTION('',(1.,0.,0.));
#307=DIRECTION('',(0.,0.,-1.));
#308=AXIS2_PLACEMENT_3D('',#305,#306,#307);
#309=PLANE('',#308);
#310=CARTESIAN_POINT('',(-0.00025,0.,-0.00275));
#311=DIRECTION('',(0.,0.,1.));
#312=VECTOR('',#311,1.);
#313=LINE('',#310,#312);
#314=EDGE_CURVE('',#27,#29,#313,.T.);
#315=ORIENTED_EDGE('',*,*,#314,.F.);
#316=CARTESIAN_POINT('',(-0.00025,-0.005,-0.00275));
#317=VERTEX_POINT('',#316);
#318=CARTESIAN_POINT('',(-0.00025,0.,-0.00275));
#319=DIRECTION('',(0.,-1.,0.));
#320=VECTOR('',#319,1.);
#321=LINE('',#318,#320);
#322=EDGE_CURVE('',#27,#317,#321,.T.);
#323=ORIENTED_EDGE('',*,*,#322,.T.);
#324=CARTESIAN_POINT('',(-0.00025,-0.005,-0.00225));
#325=VERTEX_POINT('',#324);
#326=CARTESIAN_POINT('',(-0.00025,-0.005,-0.00275));
#327=DIRECTION('',(0.,0.,1.));
#328=VECTOR('',#327,1.);
#329=LINE('',#326,#328);
#330=EDGE_CURVE('',#317,#325,#329,.T.);
#331=ORIENTED_EDGE('',*,*,#330,.T.);
#332=CARTESIAN_POINT('',(-0.00025,0.,-0.00225));
#333=DIRECTION('',(0.,-1.,0.));
#334=VECTOR('',#333,1.);
#335=LINE('',#332,#334);
#336=EDGE_CURVE('',#29,#325,#335,.T.);
#337=ORIENTED_EDGE('',*,*,#336,.F.);
#338=EDGE_LOOP('',(#315,#323,#331,#337));
#339=FACE_OUTER_BOUND('',#338,.T.);
#340=ADVANCED_FACE('',(#339),#309,.F.);
#341=CARTESIAN_POINT('',(0.00025,-0.005,-0.00275));
#342=DIRECTION('',(0.,0.,1.));
#343=DIRECTION('',(1.,0.,0.));
#344=AXIS2_PLACEMENT_3D('',#341,#342,#343);
#345=PLANE('',#344);
#346=CARTESIAN_POINT('',(0.00025,0.,-0.00275));
#347=DIRECTION('',(-1.,0.,0.));
#348=VECTOR('',#347,1.);
#349=LINE('',#346,#348);
#350=EDGE_CURVE('',#45,#27,#349,.T.);
#351=ORIENTED_EDGE('',*,*,#350,.F.);
#352=CARTESIAN_POINT('',(0.00025,-0.005,-0.00275));
#353=VERTEX_POINT('',#352);
#354=CARTESIAN_POINT('',(0.00025,0.,-0.00275));
#355=DIRECTION('',(0.,-1.,0.));
#356=VECTOR('',#355,1.);
#357=LINE('',#354,#356);
#358=EDGE_CURVE('',#45,#353,#357,.T.);
#359=ORIENTED_EDGE('',*,*,#358,.T.);
#360=CARTESIAN_POINT('',(0.00025,-0.005,-0.00275));
#361=DIRECTION('',(-1.,0.,0.));
#362=VECTOR('',#361,1.);
#363=LINE('',#360,#362);
#364=EDGE_CURVE('',#353,#317,#363,.T.);
#365=ORIENTED_EDGE('',*,*,#364,.T.);
#366=CARTESIAN_POINT('',(-0.00025,0.,-0.00275));
#367=DIRECTION('',(0.,-1.,0.));
#368=VECTOR('',#367,1.);
#369=LINE('',#366,#368);
#370=EDGE_CURVE('',#27,#317,#369,.T.);
#371=ORIENTED_EDGE('',*,*,#370,.F.);
#372=EDGE_LOOP('',(#351,#359,#365,#371));
#373=FACE_OUTER_BOUND('',#372,.T.);
#374=ADVANCED_FACE('',(#373),#345,.F.);
#375=CARTESIAN_POINT('',(0.00025,-0.005,-0.00275));
#376=DIRECTION('',(-1.,0.,1.0842021724855044E-16));
#377=DIRECTION('',(1.0842021724855044E-16,0.,1.));
#378=AXIS2_PLACEMENT_3D('',#375,#376,#377);
#379=PLANE('',#378);
#380=CARTESIAN_POINT('',(0.00025000000000000006,0.,-0.00225));
#381=DIRECTION('',(-1.0842021724855044E-16,0.,-1.));
#382=VECTOR('',#381,1.);
#383=LINE('',#380,#382);
#384=EDGE_CURVE('',#37,#45,#383,.T.);
#385=ORIENTED_EDGE('',*,*,#384,.F.);
#386=CARTESIAN_POINT('',(0.00025000000000000006,-0.005,-0.00225));
#387=VERTEX_POINT('',#386);
#388=CARTESIAN_POINT('',(0.00025000000000000006,0.,-0.00225));
#389=DIRECTION('',(0.,-1.,0.));
#390=VECTOR('',#389,1.);
#391=LINE('',#388,#390);
#392=EDGE_CURVE('',#37,#387,#391,.T.);
#393=ORIENTED_EDGE('',*,*,#392,.T.);
#394=CARTESIAN_POINT('',(0.00025000000000000006,-0.005,-0.00225));
#395=DIRECTION('',(-1.0842021724855044E-16,0.,-1.));
#396=VECTOR('',#395,1.);
#397=LINE('',#394,#396);
#398=EDGE_CURVE('',#387,#353,#397,.T.);
#399=ORIENTED_EDGE('',*,*,#398,.T.);
#400=CARTESIAN_POINT('',(0.00025,0.,-0.00275));
#401=DIRECTION('',(0.,-1.,0.));
#402=VECTOR('',#401,1.);
#403=LINE('',#400,#402);
#404=EDGE_CURVE('',#45,#353,#403,.T.);
#405=ORIENTED_EDGE('',*,*,#404,.F.);
#406=EDGE_LOOP('',(#385,#393,#399,#405));
#407=FACE_OUTER_BOUND('',#406,.T.);
#408=ADVANCED_FACE('',(#407),#379,.F.);
#409=CARTESIAN_POINT('',(0.00025000000000000006,-0.005,-0.00225));
#410=DIRECTION('',(0.,0.,-1.));
#411=DIRECTION('',(-1.,0.,0.));
#412=AXIS2_PLACEMENT_3D('',#409,#410,#411);
#413=PLANE('',#412);
#414=CARTESIAN_POINT('',(-0.00025,0.,-0.00225));
#415=DIRECTION('',(1.,0.,0.));
#416=VECTOR('',#415,1.);
#417=LINE('',#414,#416);
#418=EDGE_CURVE('',#29,#37,#417,.T.);
#419=ORIENTED_EDGE('',*,*,#418,.F.);
#420=CARTESIAN_POINT('',(-0.00025,0.,-0.00225));
#421=DIRECTION('',(0.,-1.,0.));
#422=VECTOR('',#421,1.);
#423=LINE('',#420,#422);
#424=EDGE_CURVE('',#29,#325,#423,.T.);
#425=ORIENTED_EDGE('',*,*,#424,.T.);
#426=CARTESIAN_POINT('',(-0.00025,-0.005,-0.00225));
#427=DIRECTION('',(1.,0.,0.));
#428=VECTOR('',#427,1.);
#429=LINE('',#426,#428);
#430=EDGE_CURVE('',#325,#387,#429,.T.);
#431=ORIENTED_EDGE('',*,*,#430,.T.);
#432=CARTESIAN_POINT('',(0.00025000000000000006,0.,-0.00225));
#433=DIRECTION('',(0.,-1.,0.));
#434=VECTOR('',#433,1.);
#435=LINE('',#432,#434);
#436=EDGE_CURVE('',#37,#387,#435,.T.);
#437=ORIENTED_EDGE('',*,*,#436,.F.);
#438=EDGE_LOOP('',(#419,#425,#431,#437));
#439=FACE_OUTER_BOUND('',#438,.T.);
#440=ADVANCED_FACE('',(#439),#413,.F.);
#441=CARTESIAN_POINT('',(0.,-0.005,0.));
#442=DIRECTION('',(0.,-1.,0.));
#443=DIRECTION('',(0.,0.,-1.));
#444=AXIS2_PLACEMENT_3D('',#441,#442,#443);
#445=PLANE('',#444);
#446=CARTESIAN_POINT('',(-0.00025,-0.005,-0.00275));
#447=DIRECTION('',(0.,0.,1.));
#448=VECTOR('',#447,1.);
#449=LINE('',#446,#448);
#450=EDGE_CURVE('',#317,#325,#449,.T.);
#451=ORIENTED_EDGE('',*,*,#450,.F.);
#452=CARTESIAN_POINT('',(0.00025,-0.005,-0.00275));
#453=DIRECTION('',(-1.,0.,0.));
#454=VECTOR('',#453,1.);
#455=LINE('',#452,#454);
#456=EDGE_CURVE('',#353,#317,#455,.T.);
#457=ORIENTED_EDGE('',*,*,#456,.F.);
#458=CARTESIAN_POINT('',(0.00025000000000000006,-0.005,-0.00225));
#459=DIRECTION('',(-1.0842021724855044E-16,0.,-1.));
#460=VECTOR('',#459,1.);
#461=LINE('',#458,#460);
#462=EDGE_CURVE('',#387,#353,#461,.T.);
#463=ORIENTED_EDGE('',*,*,#462,.F.);
#464=CARTESIAN_POINT('',(-0.00025,-0.005,-0.00225));
#465=DIRECTION('',(1.,0.,0.));
#466=VECTOR('',#465,1.);
#467=LINE('',#464,#466);
#468=EDGE_CURVE('',#325,#387,#467,.T.);
#469=ORIENTED_EDGE('',*,*,#468,.F.);
#470=EDGE_LOOP('',(#451,#457,#463,#469));
#471=FACE_OUTER_BOUND('',#470,.T.);
#472=ADVANCED_FACE('',(#471),#445,.T.);
#473=CARTESIAN_POINT('',(0.00025,-0.005,0.00275));
#474=DIRECTION('',(-1.,0.,-1.0842021724855044E-16));
#475=DIRECTION('',(-1.0842021724855044E-16,0.,1.));
#476=AXIS2_PLACEMENT_3D('',#473,#474,#475);
#477=PLANE('',#476);
#478=CARTESIAN_POINT('',(0.00025,0.,0.00275));
#479=DIRECTION('',(1.0842021724855044E-16,0.,-1.));
#480=VECTOR('',#479,1.);
#481=LINE('',#478,#480);
#482=EDGE_CURVE('',#72,#74,#481,.T.);
#483=ORIENTED_EDGE('',*,*,#482,.F.);
#484=CARTESIAN_POINT('',(0.00025,-0.005,0.00275));
#485=VERTEX_POINT('',#484);
#486=CARTESIAN_POINT('',(0.00025,0.,0.00275));
#487=DIRECTION('',(0.,-1.,0.));
#488=VECTOR('',#487,1.);
#489=LINE('',#486,#488);
#490=EDGE_CURVE('',#72,#485,#489,.T.);
#491=ORIENTED_EDGE('',*,*,#490,.T.);
#492=CARTESIAN_POINT('',(0.00025000000000000006,-0.005,0.00225));
#493=VERTEX_POINT('',#492);
#494=CARTESIAN_POINT('',(0.00025,-0.005,0.00275));
#495=DIRECTION('',(1.0842021724855044E-16,0.,-1.));
#496=VECTOR('',#495,1.);
#497=LINE('',#494,#496);
#498=EDGE_CURVE('',#485,#493,#497,.T.);
#499=ORIENTED_EDGE('',*,*,#498,.T.);
#500=CARTESIAN_POINT('',(0.00025000000000000006,0.,0.00225));
#501=DIRECTION('',(0.,-1.,0.));
#502=VECTOR('',#501,1.);
#503=LINE('',#500,#502);
#504=EDGE_CURVE('',#74,#493,#503,.T.);
#505=ORIENTED_EDGE('',*,*,#504,.F.);
#506=EDGE_LOOP('',(#483,#491,#499,#505));
#507=FACE_OUTER_BOUND('',#506,.T.);
#508=ADVANCED_FACE('',(#507),#477,.F.);
#509=CARTESIAN_POINT('',(0.00025,-0.005,0.00275));
#510=DIRECTION('',(0.,0.,-1.));
#511=DIRECTION('',(-1.,0.,0.));
#512=AXIS2_PLACEMENT_3D('',#509,#510,#511);
#513=PLANE('',#512);
#514=CARTESIAN_POINT('',(-0.00025,0.,0.00275));
#515=DIRECTION('',(1.,0.,0.));
#516=VECTOR('',#515,1.);
#517=LINE('',#514,#516);
#518=EDGE_CURVE('',#90,#72,#517,.T.);
#519=ORIENTED_EDGE('',*,*,#518,.F.);
#520=CARTESIAN_POINT('',(-0.00025,-0.005,0.00275));
#521=VERTEX_POINT('',#520);
#522=CARTESIAN_POINT('',(-0.00025,0.,0.00275));
#523=DIRECTION('',(0.,-1.,0.));
#524=VECTOR('',#523,1.);
#525=LINE('',#522,#524);
#526=EDGE_CURVE('',#90,#521,#525,.T.);
#527=ORIENTED_EDGE('',*,*,#526,.T.);
#528=CARTESIAN_POINT('',(-0.00025,-0.005,0.00275));
#529=DIRECTION('',(1.,0.,0.));
#530=VECTOR('',#529,1.);
#531=LINE('',#528,#530);
#532=EDGE_CURVE('',#521,#485,#531,.T.);
#533=ORIENTED_EDGE('',*,*,#532,.T.);
#534=CARTESIAN_POINT('',(0.00025,0.,0.00275));
#535=DIRECTION('',(0.,-1.,0.));
#536=VECTOR('',#535,1.);
#537=LINE('',#534,#536);
#538=EDGE_CURVE('',#72,#485,#537,.T.);
#539=ORIENTED_EDGE('',*,*,#538,.F.);
#540=EDGE_LOOP('',(#519,#527,#533,#539));
#541=FACE_OUTER_BOUND('',#540,.T.);
#542=ADVANCED_FACE('',(#541),#513,.F.);
#543=CARTESIAN_POINT('',(-0.00025,-0.005,0.00275));
#544=DIRECTION('',(1.,0.,0.));
#545=DIRECTION('',(0.,0.,-1.));
#546=AXIS2_PLACEMENT_3D('',#543,#544,#545);
#547=PLANE('',#546);
#548=CARTESIAN_POINT('',(-0.00025,0.,0.00225));
#549=DIRECTION('',(0.,0.,1.));
#550=VECTOR('',#549,1.);
#551=LINE('',#548,#550);
#552=EDGE_CURVE('',#82,#90,#551,.T.);
#553=ORIENTED_EDGE('',*,*,#552,.F.);
#554=CARTESIAN_POINT('',(-0.00025,-0.005,0.00225));
#555=VERTEX_POINT('',#554);
#556=CARTESIAN_POINT('',(-0.00025,0.,0.00225));
#557=DIRECTION('',(0.,-1.,0.));
#558=VECTOR('',#557,1.);
#559=LINE('',#556,#558);
#560=EDGE_CURVE('',#82,#555,#559,.T.);
#561=ORIENTED_EDGE('',*,*,#560,.T.);
#562=CARTESIAN_POINT('',(-0.00025,-0.005,0.00225));
#563=DIRECTION('',(0.,0.,1.));
#564=VECTOR('',#563,1.);
#565=LINE('',#562,#564);
#566=EDGE_CURVE('',#555,#521,#565,.T.);
#567=ORIENTED_EDGE('',*,*,#566,.T.);
#568=CARTESIAN_POINT('',(-0.00025,0.,0.00275));
#569=DIRECTION('',(0.,-1.,0.));
#570=VECTOR('',#569,1.);
#571=LINE('',#568,#570);
#572=EDGE_CURVE('',#90,#521,#571,.T.);
#573=ORIENTED_EDGE('',*,*,#572,.F.);
#574=EDGE_LOOP('',(#553,#561,#567,#573));
#575=FACE_OUTER_BOUND('',#574,.T.);
#576=ADVANCED_FACE('',(#575),#547,.F.);
#577=CARTESIAN_POINT('',(0.00025000000000000006,-0.005,0.00225));
#578=DIRECTION('',(0.,0.,1.));
#579=DIRECTION('',(1.,0.,0.));
#580=AXIS2_PLACEMENT_3D('',#577,#578,#579);
#581=PLANE('',#580);
#582=CARTESIAN_POINT('',(0.00025000000000000006,0.,0.00225));
#583=DIRECTION('',(-1.,0.,0.));
#584=VECTOR('',#583,1.);
#585=LINE('',#582,#584);
#586=EDGE_CURVE('',#74,#82,#585,.T.);
#587=ORIENTED_EDGE('',*,*,#586,.F.);
#588=CARTESIAN_POINT('',(0.00025000000000000006,0.,0.00225));
#589=DIRECTION('',(0.,-1.,0.));
#590=VECTOR('',#589,1.);
#591=LINE('',#588,#590);
#592=EDGE_CURVE('',#74,#493,#591,.T.);
#593=ORIENTED_EDGE('',*,*,#592,.T.);
#594=CARTESIAN_POINT('',(0.00025000000000000006,-0.005,0.00225));
#595=DIRECTION('',(-1.,0.,0.));
#596=VECTOR('',#595,1.);
#597=LINE('',#594,#596);
#598=EDGE_CURVE('',#493,#555,#597,.T.);
#599=ORIENTED_EDGE('',*,*,#598,.T.);
#600=CARTESIAN_POINT('',(-0.00025,0.,0.00225));
#601=DIRECTION('',(0.,-1.,0.));
#602=VECTOR('',#601,1.);
#603=LINE('',#600,#602);
#604=EDGE_CURVE('',#82,#555,#603,.T.);
#605=ORIENTED_EDGE('',*,*,#604,.F.);
#606=EDGE_LOOP('',(#587,#593,#599,#605));
#607=FACE_OUTER_BOUND('',#606,.T.);
#608=ADVANCED_FACE('',(#607),#581,.F.);
#609=CARTESIAN_POINT('',(0.,-0.005,0.));
#610=DIRECTION('',(0.,1.,0.));
#611=DIRECTION('',(0.,0.,1.));
#612=AXIS2_PLACEMENT_3D('',#609,#610,#611);
#613=PLANE('',#612);
#614=CARTESIAN_POINT('',(0.00025,-0.005,0.00275));
#615=DIRECTION('',(1.0842021724855044E-16,0.,-1.));
#616=VECTOR('',#615,1.);
#617=LINE('',#614,#616);
#618=EDGE_CURVE('',#485,#493,#617,.T.);
#619=ORIENTED_EDGE('',*,*,#618,.F.);
#620=CARTESIAN_POINT('',(-0.00025,-0.005,0.00275));
#621=DIRECTION('',(1.,0.,0.));
#622=VECTOR('',#621,1.);
#623=LINE('',#620,#622);
#624=EDGE_CURVE('',#521,#485,#623,.T.);
#625=ORIENTED_EDGE('',*,*,#624,.F.);
#626=CARTESIAN_POINT('',(-0.00025,-0.005,0.00225));
#627=DIRECTION('',(0.,0.,1.));
#628=VECTOR('',#627,1.);
#629=LINE('',#626,#628);
#630=EDGE_CURVE('',#555,#521,#629,.T.);
#631=ORIENTED_EDGE('',*,*,#630,.F.);
#632=CARTESIAN_POINT('',(0.00025000000000000006,-0.005,0.00225));
#633=DIRECTION('',(-1.,0.,0.));
#634=VECTOR('',#633,1.);
#635=LINE('',#632,#634);
#636=EDGE_CURVE('',#493,#555,#635,.T.);
#637=ORIENTED_EDGE('',*,*,#636,.F.);
#638=EDGE_LOOP('',(#619,#625,#631,#637));
#639=FACE_OUTER_BOUND('',#638,.T.);
#640=ADVANCED_FACE('',(#639),#613,.F.);
#641=CARTESIAN_POINT('',(0.,0.0052,0.));
#642=DIRECTION('',(0.,1.,0.));
#643=DIRECTION('',(0.,0.,1.));
#644=AXIS2_PLACEMENT_3D('',#641,#642,#643);
#645=TOROIDAL_SURFACE('',#644,0.0042,0.0003);
#646=CARTESIAN_POINT('',(0.,0.0052,0.));
#647=DIRECTION('',(0.,1.,0.));
#648=DIRECTION('',(0.,0.,1.));
#649=AXIS2_PLACEMENT_3D('',#646,#647,#648);
#650=CIRCLE('',#649,0.0045);
#651=EDGE_CURVE('',#259,#259,#650,.T.);
#652=ORIENTED_EDGE('',*,*,#651,.T.);
#653=EDGE_LOOP('',(#652));
#654=FACE_OUTER_BOUND('',#653,.T.);
#655=CARTESIAN_POINT('',(0.,0.0055,0.));
#656=DIRECTION('',(0.,1.,0.));
#657=DIRECTION('',(0.,0.,1.));
#658=AXIS2_PLACEMENT_3D('',#655,#656,#657);
#659=CIRCLE('',#658,0.0042);
#660=EDGE_CURVE('',#285,#285,#659,.T.);
#661=ORIENTED_EDGE('',*,*,#660,.T.);
#662=EDGE_LOOP('',(#661));
#663=FACE_BOUND('',#662,.F.);
#664=ADVANCED_FACE('',(#654,#663),#645,.T.);
#665=CLOSED_SHELL('',(#105,#133,#159,#185,#200,#226,#252,#278,#304,#340,#374,#408,#440,#472,#508,#542,#576,#608,#640,#664));
#666=MANIFOLD_SOLID_BREP('',#665);
#667=CARTESIAN_POINT('',(0.,0.,0.));
#668=DIRECTION('',(0.,0.,1.));
#669=DIRECTION('',(1.,0.,0.));
#670=AXIS2_PLACEMENT_3D('',#667,#668,#669);
#671=(LENGTH_UNIT() NAMED_UNIT(*) SI_UNIT($,.METRE.));
#672=(NAMED_UNIT(*) PLANE_ANGLE_UNIT() SI_UNIT($,.RADIAN.));
#673=(NAMED_UNIT(*) SI_UNIT($,.STERADIAN.) SOLID_ANGLE_UNIT());
#674=UNCERTAINTY_MEASURE_WITH_UNIT(LENGTH_MEASURE(1.E-07),#671,'distance_accuracy_value','confusion accuracy');
#675=(GEOMETRIC_REPRESENTATION_CONTEXT(3) GLOBAL_UNCERTAINTY_ASSIGNED_CONTEXT((#674)) GLOBAL_UNIT_ASSIGNED_CONTEXT((#671,#672,#673)) REPRESENTATION_CONTEXT('','3D'));
#676=ADVANCED_BREP_SHAPE_REPRESENTATION('',(#670,#666),#675);
#677=COLOUR_RGB('',0.8980392156862745,0.8980392156862745,0.8980392156862745);
#678=FILL_AREA_STYLE_COLOUR('',#677);
#679=FILL_AREA_STYLE('',(#678));
#680=SURFACE_STYLE_FILL_AREA(#679);
#681=SURFACE_SIDE_STYLE('',(#680));
#682=SURFACE_STYLE_USAGE(.BOTH.,#681);
#683=PRESENTATION_STYLE_ASSIGNMENT((#682));
#684=STYLED_ITEM('',(#683),#666);
#685=MECHANICAL_DESIGN_GEOMETRIC_PRESENTATION_REPRESENTATION('',(#684),#675);
ENDSEC;
END-ISO-10303-21;